<?xml version="1.0" encoding="utf-8"?>
<!-- Generator: Adobe Illustrator 21.0.2, SVG Export Plug-In . SVG Version: 6.00 Build 0)  -->
<svg version="1.1" xmlns="http://www.w3.org/2000/svg" xmlns:xlink="http://www.w3.org/1999/xlink" x="0px" y="0px"
	 viewBox="0 0 500 500" style="enable-background:new 0 0 500 500;" xml:space="preserve">
<style type="text/css">
	.st0{fill:#FFFFFF;stroke:#000000;stroke-miterlimit:10;}
	.st1{fill:#F1F2F2;}
	.st2{fill:#03AAB4;}
	.st3{fill:#7FC242;}
	.st4{fill:#982890;}
	.st5{fill:#F58120;}
	.st6{fill:#198ECE;}
	.st7{fill:#ED2027;}
	.st8{fill:#FDFEFE;}
	.st9{fill:#FFFFFF;}
</style>
<g id="Layer_1">
</g>
<g id="Layer_2">
</g>
<g id="PC">
</g>
<g id="PC_BIGGER_LINE">
</g>
<g id="PCPIN">
</g>
<g id="PC_PIN_WAVES">
	<g>
		<g>
			<path class="st9" d="M154,390.1c9.5-4.8,19.4-9.3,29.6-12.6c6-2,12.6-4.2,18.8-1.7c7.4,3,13.1,9.1,20.5,12.4
				c17.5,7.8,28.7-6.1,42.4-14.4c7.2-4.3,12.6-2.5,19.4,1.6c7.2,4.4,13.8,9.8,21.7,13.1c15.1,6.3,31.1-2.7,41.3-13.9
				c4.4-4.7-2.7-11.8-7.1-7.1c-3.5,3.8-7.8,7.2-12.4,9.7c-8,4.5-14.8,4.2-22.6-0.2c-12.6-7.2-25.6-20.8-41.2-14
				c-7.4,3.3-13.2,9.2-19.9,13.6c-7.3,4.8-13.4,5.2-21,0.7c-6.8-4.1-12.8-9.7-20.7-11.8c-6.4-1.7-12.9-0.3-19.1,1.6
				c-11.9,3.6-23.6,8.8-34.7,14.4C143.2,384.4,148.3,393,154,390.1L154,390.1z"/>
		</g>
	</g>
	<g>
		<g>
			<path class="st9" d="M158.3,421.6c9.5-4.8,19.4-9.3,29.6-12.6c6-2,12.6-4.2,18.8-1.7c7.4,3,13.1,9.1,20.5,12.4
				c17.5,7.8,28.7-6.1,42.4-14.4c7.2-4.3,12.6-2.5,19.4,1.6c7.2,4.4,13.8,9.8,21.7,13.1c15.1,6.3,31.1-2.7,41.3-13.9
				c4.4-4.7-2.7-11.8-7.1-7.1c-3.5,3.8-7.8,7.2-12.4,9.7c-8,4.5-14.8,4.2-22.6-0.2c-12.6-7.2-25.6-20.8-41.2-14
				c-7.4,3.3-13.2,9.2-19.9,13.6c-7.3,4.8-13.4,5.2-21,0.7c-6.8-4.1-12.8-9.7-20.7-11.8c-6.4-1.7-12.9-0.3-19.1,1.6
				c-11.9,3.6-23.6,8.8-34.7,14.4C147.5,415.8,152.6,424.5,158.3,421.6L158.3,421.6z"/>
		</g>
	</g>
	<path class="st9" d="M249.5,346.3c-3.2-5.5-6.2-10.7-9.2-16c-25.8-44.8-51.5-89.7-77.3-134.5c-3.2-5.5-6.4-11-9.2-16.7
		c-4.9-10.3-7.6-21.1-8.8-32.5c-1.4-14.4-0.1-28.5,4.4-42.2c8.6-26.4,25.2-46.4,49.4-60.1c11.7-6.6,24.4-10.6,37.8-12.2
		c27.7-3.2,52.9,3.2,75.3,19.8c21,15.5,34.5,36.2,40.1,61.8c5.7,25.8,2,50.5-11,73.5c-15.4,27.3-31.3,54.3-47,81.5
		c-14.5,25.1-28.9,50.3-43.4,75.4C250.3,344.9,250,345.5,249.5,346.3z M210,117.6v71.8l37.8,66.2l0.5-90.3c0.8,0,8.4,0.9,9.3,0.9
		c25.3,0,46-19.7,47.5-44.6v0l-33.8,0c-1.3,6.3-7,11.1-13.7,11.1c-7.7,0-14-6.3-14-14s6.3-14,14-14c6.8,0,12.4,4.8,13.7,11.2
		l33.8-0.1l0-0.2c-1.6-24.9-22.2-44.5-47.5-44.5C231.3,71.2,210,91.3,210,117.6"/>
</g>
</svg>
