<?xml version="1.0" encoding="utf-8"?>
<!-- Generator: Adobe Illustrator 19.1.0, SVG Export Plug-In . SVG Version: 6.00 Build 0)  -->
<svg version="1.1" id="Camada_1" xmlns="http://www.w3.org/2000/svg" xmlns:xlink="http://www.w3.org/1999/xlink" x="0px" y="0px"
	 viewBox="0 0 595.3 841.9" style="enable-background:new 0 0 595.3 841.9;" xml:space="preserve">
<style type="text/css">
	.st0{fill:#134891;}
	.st1{fill:#F47C29;stroke:#FFFFFF;stroke-width:2;stroke-miterlimit:10;}
	.st2{fill:#277238;stroke:#F6F7F5;stroke-width:2;stroke-miterlimit:10;}
	.st3{fill:#277238;stroke:#FFFFFF;stroke-miterlimit:10;}
	.st4{fill:#134891;stroke:#FFFFFF;stroke-miterlimit:10;}
	.st5{fill:#F47C29;stroke:#FAFAFA;stroke-width:2;stroke-miterlimit:10;}
	.st6{fill:#575554;stroke:#FFFFFF;stroke-width:2;stroke-miterlimit:10;}
	.st7{fill:#009CAA;stroke:#FFFFFF;stroke-width:2;stroke-miterlimit:10;}
	.st8{fill:#FFFFFF;stroke:#134891;stroke-width:3;stroke-miterlimit:10;}
	.st9{fill:#277238;stroke:#FFFFFF;stroke-width:2;stroke-miterlimit:10;}
	.st10{fill:#5B1D11;stroke:#FFFFFF;stroke-width:2;stroke-miterlimit:10;}
	.st11{fill:#E9001E;stroke:#FFFFFF;stroke-width:2;stroke-miterlimit:10;}
	.st12{fill:#81BC44;stroke:#FFFFFF;stroke-width:2;stroke-miterlimit:10;}
	.st13{fill:#623687;stroke:#FFFFFF;stroke-width:2;stroke-miterlimit:10;}
	.st14{fill:#FCE83E;stroke:#FFFFFF;stroke-width:2;stroke-miterlimit:10;}
	.st15{fill:#E90821;stroke:#FFFFFF;stroke-width:2;stroke-miterlimit:10;}
</style>
<path class="st0" d="M525.2,559.9c-0.1,2.3-0.1,4.5-0.2,6.8c-1.1,0-12.6,0-19.5-10.3c-5.6-8.3-4.2-17.4-3.9-19.1
	c-2.2,0.2-4.4,0.3-6.5,0.5l-11.3,4.7h-59.2l0.3-10.6c2-1.8,4-3.7,6.1-5.5c-2.7-0.3-5.5-0.6-8.2-0.9c0.1-7.8,0.1-15.6,0.2-23.4h54.8
	l3.7-4.8l24.2,0.9l19.6,14.6l3.3,10l25,2.4l1.4-4.2l-20.5-2l-5.7-12.2l26.9-1v-8.7h-30.4l-4.7,8.7l-11.4-8.7l0.2-9.3l-16.5,0.6
	l0.6,3.1h-81.2l-32.3-35.5l2.7-16.2l11.4,1.4l41.9,29.6l9.4-3l-46.8-42.1l2.5-8.2l79.8-0.6l-4-9.1l-81-0.3l-88-168.2l27-4.9
	l40.5-9.3l-2.9-9.2l-66.1,6.9l-23.8-76.4l4.5-121.7L268.8,24L223,20.4L196.4,8.8L189,4.6V0.3L167.4,0l12.5,11.3l37.6,19.9l51.3,3.2
	l5.8,10.4l2.4,74.9l-17.4-49.1l-7.6,0l-1.2,4l-20.5,2.3v10l20.5-0.7l6.8,11.4l-1.2,38.6l-21.5,2.5l-4.8-6.1l-32.6-7.8l-14-9.9
	l-43.3-22.6L112,59.2l11.5-14.4v21.4l9.3,2l-0.7-23.3l2-0.2l1.5-19.9h8.3V0L57.2,0.1c9.4,12.2,15.6,23.2,19.5,31.3
	c9.6,19.4,14.6,38.2,19.6,56.7c1.4,5.1,2.4,9.3,3.1,12.2c26,30.8,52,61.6,78.1,92.3c3.1-1.2,5.4-0.9,7-0.4
	c7.8,2.6,12.5,17.1,10.8,36.1c-0.2,18-0.3,36-0.5,54c2.2,1.4,5.2,3.7,7.6,7.4c6.7,10,4.2,21.8,3.7,24
	c-17.2,29.2-34.4,58.4-51.6,87.6c-1,1.6-2.1,3.2-3.1,4.8c-5.4,8.6-10.8,17.3-16.1,25.9l-25-15.1l22.7-35.6l-7.5-7.7l-45.8,52.1
	l-20,44.1l12.6,3l20.5-38.1l40.8,19.8l-28.1,64.6l11,6.1l29-60.3l18.7,11.5l-4.7,16l14.4,9.8l9.7-16.6c4.4,2.7,15.9,8.8,31.2,7.4
	c11.7-1.1,20.3-6.1,24.5-9c2.5,5.2,7.5,8.5,12.9,8.4c5.6-0.1,10.6-3.6,13-9.1l1.3,3l6.6,26.5l6.8,2.4l0.6,7.7
	c1.1,0.2,7.6,1.5,11.7,8.1c4.2,6.7,2.7,13.8,2.4,14.9l10.1,2.1l1.3-11.2c17.5-2.1,29.2,1.8,36.5,5.6c11.4,5.9,21.4,16.3,40.2,36
	c6,6.3,7.3,7.9,10.9,10.5c10.4,7.4,19.9,8,37,9.6c39.3,3.5,47.3,5.2,56.2,11.2c4.7,3.2,10.4,7.1,13.7,14
	c8.1,16.9-1.7,43.5-24.5,67.2c-15.1,10.1-30.2,20.3-45.4,30.4c-11.6,2.9-31.4,9.7-51.2,26.3c-14.7,12.3-24.2,25.7-29.9,35.4
	l-10.1,32.6l-2.3,26.1h11.9l13.1-50.2c4.9-9.1,14.5-24.5,31.4-37.7c18.8-14.7,37.3-19.5,47.2-21.4c10.9-5,27.5-14.5,43.4-31.8
	c11.2-12.2,18.5-24.5,23.2-34c5.6-12.5,8-23.4,9.1-30.9c1.5-10.3,2.5-17.4-0.7-24.6c-2.9-6.6-8.1-11.4-18.7-16.5
	c-9.7-4.6-28.1-11.5-55.6-11.6c-25.8-4-42.8-13.6-53.8-21.7c-17.3-12.9-24.2-25.9-44.4-35.1c-13.7-6.2-26.4-7.5-35-7.5l-17.8-14.5
	l13.1-34.1l30.2-49.2l24.6,23.2l-9.3,14.6l14.5,13.9l6.5-9l35.7,36.6l3.6,15.6l-5.4,12.8l11.1-3.3l6.6,11.3
	c-2.2,3.8-4.4,7.5-6.7,11.3c2.2,0.4,4.4,0.9,6.6,1.3c22.4-0.5,44.7-1.1,67.1-1.6c2.8,0.1,5.7,0.2,8.5,0.3c0.8,3.1,2.4,7.6,6,11.9
	c8.8,10.5,21.8,10.1,23.9,10l65.2,20.7v-8.5C569.7,574.6,547.4,567.2,525.2,559.9z"/>
<polygon class="st1" points="228.5,203.6 193.9,154.2 258.6,151 258.6,155.5 267.4,155.5 267.4,160 258.4,175.1 "/>
<path class="st2" d="M82.1,283.8l112.7-1.2c0.3-23.2,0.7-46.5,1-69.7c-6.1-6.9-12.1-13.8-18.2-20.7c-18.6-22-37.1-43.9-55.7-65.9
	c-15.9,24-31.8,48.1-47.8,72.1l5.7,8.9c-2,1.6-8.2,6.7-9.1,15.1c-0.2,1.5-0.1,3,0,4.3c-1.1,0.1-13.8,1.4-17.1,10.4
	c-0.7,1.9-1.9,6.5,3.3,17.2C60.1,261.3,67.2,273.1,82.1,283.8z"/>
<rect x="228.5" y="141.5" class="st3" width="24.2" height="6.3"/>
<polygon class="st0" points="474.8,538.7 474.8,544.1 422.9,545.9 422.9,538.7 "/>
<path class="st4" d="M526.6,568.9c0.4,17.1,0.8,34.3,1.2,51.4h1.5v3.9h-8.5v2.8h12.7v-2.8l-2.9-0.3l-0.2-3.5h0.8v-7.4l3.7,0.3v-7.2
	v-7.7h20.9v15.6h4.7l-0.5-15.6h-1.7v-2.2h3.7v17.9h4.7v-17.6v-14.1C553.4,577.9,540,573.4,526.6,568.9z"/>
<polygon class="st0" points="168,178.9 195.8,212.8 196.1,269.9 213.6,269.9 209.4,178.9 "/>
<path class="st5" d="M125.9,374.9l68.9-92.4c2.6,1.8,9,6.9,11.8,15.8c3.3,10.3-0.2,19.1-1.6,22.6c-3,7.6-7.8,12.4-10.6,14.8
	l-59.2,97.1l-25.9-14.7l23-37.2L125.9,374.9z"/>
<polygon class="st1" points="152.7,442.3 216.2,335.1 238.1,339.3 249.5,346.3 188.9,439.5 174.1,429.1 163.3,448.3 "/>
<path class="st6" d="M247.5,344.7c13.5,7.4,24.8,12.4,32.3,15.6c11.9,5,35.2,14.1,42.7,25.9c0.7,1.2,2.5,4,3,7.9
	c0.8,5.6-1.3,10.1-3,13.8c-6.4,13.4-9.6,20.1-11.7,23.3c-4.4,6.5-4.4,5.2-20.4,23.3c-11.8,13.4-14.3,17-20.7,18.6
	c-3.7,0.9-3.9-0.1-15.4,0.9c-3.5,0.3-7,0.7-16.9,2.1c-17.5,2.5-18.9,3.1-21.6,3.3c-8.4,0.6-20.8-3.2-37.9-23.8L247.5,344.7z"/>
<polygon class="st0" points="422.9,531.3 466,531.3 466,523.3 425.9,523.3 421.2,521.3 "/>
<path class="st7" d="M304,547.1l-13.8,59.8c12.8,15.4,25.1,21.1,34.4,23.2c20.7,4.8,35.9-5.4,47.5,3.6c7.5,5.7-0.4,18.3,21.3,19.9
	c20.9-33.9,19.9-50,14.3-58.4c-3.5-5.3-6.4-4-19.4-13.4c-16.1-11.6-16.1-16.8-35.4-32.2c-14.1-11.2-20.3-13.4-25.2-14.4
	c-8.9-1.8-16.7-0.5-21.7,0.9L304,547.1z"/>
<line class="st8" x1="565.9" y1="582.4" x2="527.7" y2="568.9"/>
<path class="st6" d="M422.8,502.1h54.8l3.7-4.8l24.2,0.9l17.7,14.8l4.2,45.7l-2.4,7.9c-3.3-0.1-8.8-0.7-13.5-4.2
	c-3-2.2-5.4-5.3-6-6.1c-0.8-1.1-1.7-2.5-3.5-5.3c-3.3-5.3-3-5.1-3.9-6.1c-1.6-1.9-4.6-5.5-8.7-5.4c-2.6,0.1-4.6,1.7-5.8,2.9
	l-8.9-0.2v-3.6h-50.2l-1-7.4l39.3,0.1l3-0.1v-8h-40l-3.3-1.4L422.8,502.1z"/>
<path class="st1" d="M412.1,491.6h97.1l-0.4,5.5l12.1,9.4l4.5-9.1c22.4,0.4,44.8,0.7,67.1,1.1c-0.9-2.9-3.8-10.4-11.3-16.4
	c-7.2-5.8-14.8-7-17.9-7.4l-22-14.3l-6-22l-0.4-12.6l-54.6-8.9l-79.8,0.6l-1.4,5.9l44.4,43.4l-7.7,4.1l-41.9-29.6l-11.4-1.4
	l-2.7,16.2L412.1,491.6z"/>
<polygon class="st9" points="190.8,4.8 223,20.4 286.8,24.7 282.3,146.4 306.2,222.8 406.5,212.3 318.8,4.8 "/>
<polyline class="st10" points="555.9,613.9 555.9,598.4 535,598.4 535,613.3 531.3,612.9 530.6,623.8 533.5,624.2 533.5,627 
	536.6,627 592,629.1 592,592.6 566.8,583.7 566.8,614.1 "/>
<polygon class="st1" points="307.7,239.3 374.8,224.7 473.4,408.2 395.7,407.5 "/>
<path class="st9" d="M428.3,318l31-15.7l61,30.7c1.8,0.3,27.8,5.8,36.1,28.5c3.7,10.2,2.3,19.6,1.1,24.3l-12.4,17.6l-9.2,19.5
	l-55.5-7.2L428.3,318z"/>
<path class="st9" d="M253.7,488.4L243,590.1l15.9,6.5l16.9,3l14.5,7.3l13.8-59.8l-7.6-0.6c0.6-1.3,2.7-6.1,0.8-11.2
	c-1.2-3.3-3.5-5.3-4.8-6.5c-2.5-2.2-5.1-3.3-6.7-3.8c-0.8-1.7-1.9-4.1-3.5-7c-1.6-2.9-2.5-4.4-3.8-6c-1.3-1.5-3.4-3.6-7-5.5
	l-3.4-25.4L253.7,488.4z"/>
<polyline class="st7" points="428.3,318 459.3,302.4 404.6,212.5 374.8,215.6 "/>
<path class="st11" d="M308,518.7l-17.8-14.5l13.1-34.1l30.2-49.2l24.6,23.2l-9.3,14.6l14.5,13.9l6.5-9l35.7,36.6
	c1.1,1.8,4.4,7.7,3.6,15.6c-0.7,6.6-4,11-5.4,12.8c2.4-3.7,7.1-5.1,11.1-3.3c4,1.8,6.1,6.4,4.8,10.7c-1.2,4.1-2.5,8.3-3.7,12.4
	c-7-4.1-14.1-8.2-21.1-12.4l-7.2,25.4l-29.5-26.2c-6-4.4-15.8-10.5-29.1-13.9C320.8,519.3,313.7,518.7,308,518.7z"/>
<path class="st7" d="M28.9,492.1h16.9l70.4,33.1l29-60.3l18.7,11.5l-4.7,16l14.4,9.8v89.1c-3.1,4.4-24.5,33.4-64.2,37.3
	c-4.4,0.4-40.7,3.4-67.5-21.7C13.6,580.4,7.4,533.2,28.9,492.1z"/>
<path class="st7" d="M173.6,502.1l9.7-16.6c3.7,2.5,12.4,7.8,24.7,8.3c16.3,0.7,27.8-7.4,31-9.9c0.6,1.3,2.7,5.2,7.3,7.2
	c2.2,1,4.3,1.2,5.6,1.2l-9,97.7l-69.4,1.2V502.1z"/>
<path class="st9" d="M393.5,653.6l17.6-43l-1.6-12.3c15-2.4,44.7-5.1,71.1,8c13.6,6.7,17.8,13.5,19.7,17.4c5,10.6,2.2,21.4,0,29.1
	c-5.1,18.5-16.5,30.1-24.5,38.1c-14.2,14.2-28.3,21.6-45.4,30.4c-14.9,7.6-27.8,12.7-37,15.9V653.6z"/>
<polygon class="st12" points="555.5,497.2 590.1,498.4 592,581.9 527.4,558.8 523.2,513.1 528.4,522.9 553.4,525.3 552.4,520.9 
	534.3,519.1 528.6,506.9 555.5,505.9 "/>
<path class="st13" d="M348.8,841.8c0.4-12.3,2.9-30.8,13.1-50.2c2.6-5,7.7-13.7,15.9-23.1c13.1-14.7,26.3-22.2,28.9-23.7
	c14.4-7.9,16.4-4.4,33.7-12.3c6.1-2.8,20.1-9.8,34.6-23c15-13.5,23.1-26.9,25.5-31.1c9.6-16.3,13.7-31.8,15.6-42.7V627l75.8,2.1
	v212.7H348.8z"/>
<path class="st1" d="M517.6,623.8h10.3l-1.3-52.6l-5.8-0.8c-1.8-0.1-4.3-0.4-7.2-1.5c-3.4-1.2-5.7-2.9-7.1-3.9
	c-1.8-1.3-4.5-3.2-6.7-6.5c-2.7-4-3.6-8-3.9-10.7l-74.5,1.4l-6.6-1.3L394.6,536l-6.9,24.4c5.4,3.4,11.3,6.9,17.7,10.3
	c5.4,2.9,10.7,5.5,15.8,7.8c3.6,1.1,9.1,2.6,15.9,3.9c18.3,3.6,22.4,1.3,37.7,4.6c12.8,2.8,20,6.7,28.1,10.9
	c5.9,3.2,9.4,5.7,11.9,9.9C518.4,614,518,620.6,517.6,623.8z"/>
<g id="h5Qzih.tif">
	
		<image style="overflow:visible;" width="2228" height="3508" id="Camada_1_2_" xlink:href="99AA873B1DC5B123.png"  transform="matrix(0.24 0 0 0.24 60.56 -3.000000e-02)">
	</image>
</g>
<g id="uKA1aW.tif">
	
		<image style="overflow:visible;" width="669" height="280" id="Camada_1_3_" xlink:href="99AA873B1DC5B121.png"  transform="matrix(8.794019e-02 0 0 9.142253e-02 474.6149 373.7537)">
	</image>
</g>
<g id="uKA1aW.tif_1_">
	
		<image style="overflow:visible;" width="669" height="280" id="Camada_1_4_" xlink:href="99AA873B1DC5B127.png"  transform="matrix(1.551871e-02 -9.528214e-02 0.1446 2.354862e-02 404.9052 678.6909)">
	</image>
</g>
<path class="st14" d="M83.8,279l112.5,1.7l-68.9,92.4l-45.8,50.6L61,467.9l12.6,3l20.5-38.1l40.8,19.8l-28.1,64.6l-59.4-27H30.5
	l13-67.7l13.7-61.2l-12.6-17.5l4.2-65.9c2.5-6.2,8.2-10.5,14.7-11.4c9.7-1.2,15.9,5.8,16.4,6.4L83.8,279z"/>
<path class="st15" d="M274.3,122.8h3.1V67.4V48c0.1-0.3,1.5-6.4-3.1-10.8c-4.4-4.2-10.1-2.9-10.5-2.8L250,34.6l-17.1-0.7l-16.3-1.1
	l-6.9-9.1c-4.2-4.6-10.3-10.1-18.6-14.7c-4.3-2.4-12.8-7.1-25.1-8.6c-9.4-1.1-17.3,0-22.3,1.2l-0.1,24.5h-9.9L133.6,46l-3.3,0.2
	l0.3,20.6l-6.8,0.6l-0.2-22.7l-13.4,13v7.9l13.7,16l14,11.8l17.6,10.4c4,1.9,8,3.9,12.2,6.1c9.9,5.3,18.8,10.9,26.7,16.4l5.2,1.1
	l21.9,8.6l18,6c2.3,0.6,8.3,1.8,13.8-1.4c1.1-0.6,2.5-1.4,3.6-2.9c2.9-3.9,1.5-8.8,0.6-14.9c-1.8-12.8,1.6-13.3-0.7-21.4
	c-1.1-3.8-3.5-9.7-9.8-15.8l-15.3,0.3l-2-6.8l11.1-1.4l10.8-0.9L252,73l7.1-0.4L274.3,122.8z"/>
<path class="st1" d="M133.7,44.2c12,15.4,34.6,39.4,70.3,51.4c7.6,2.6,15,4.3,21.8,5.4c3,12.5,6,25.1,9.1,37.6l-32.4-12.5l-7.8-2.1
	l-31.4-19.1l-17.1-8.3l-12.4-8.5l-9.2-8l-14.2-16.3v-7.9l13.4-13l0.8,20.1h5.6l0.3-18.6L133.7,44.2z"/>
<polygon class="st15" points="241.8,321.4 295.5,277.5 291.4,270.7 302.3,260.4 295.5,230.4 281.9,239.6 280.8,230.4 291.4,221.3 
	274.6,177.9 265.3,185.8 260.5,177.9 230.5,206.6 230.5,282.4 "/>
<polygon class="st15" points="364.4,435.2 376.8,429.1 376.8,402.4 309.1,266.3 294.9,277.2 242.6,321.7 327.8,375.6 362.6,432.4 
	"/>
</svg>
