<?xml version="1.0" encoding="utf-8"?>


<!-- Generator: Adobe Illustrator 19.1.0, SVG Export Plug-In . SVG Version: 6.00 Build 0)  -->
<svg version="1.1" id="Camada_1" xmlns="http://www.w3.org/2000/svg" xmlns:xlink="http://www.w3.org/1999/xlink" x="0px" y="0px"
	 viewBox="0 0 595.3 841.9" style="enable-background:new 0 0 595.3 841.9;" xml:space="preserve">
<style type="text/css">
	.st0{fill:#FFEC38;stroke:#FFFFFF;stroke-width:2;stroke-miterlimit:10;}
	.st1{fill:#FFEC38;}
</style>
<path class="st0" d="M304.8,294.9c7,0.6,13.3,5.4,16.2,12.5c37.5,0.4,75,0.8,112.4,1.1c2.9,2,9.3,7.3,12,16.6
	c3.7,12.7-1.1,27.6-12.2,37.6c-19.7,32.6-39.4,65.1-59.2,97.7c-8.6-4.9-17.3-9.8-25.9-14.8l23-37.4c-2.2-2-4.3-4.1-6.5-6.1
	c-15,16.7-29.9,33.4-44.9,50c-13.3-0.5-26.7-1-40-1.5c3.4-2.9,11.9-11,16-24.9c5-17.2,0-31.7-1.6-35.7c-4.2-5.9-8.4-11.7-12.6-17.6
	c1.4-22.1,2.8-44.2,4.2-66.3C289.7,298.7,297.1,294.2,304.8,294.9z"/>
<path class="st0" d="M279.9,450.6l-12.1,69.2h16.9l59.4,27.2l28.1-65l-40.8-19.9L311,500.5l-12.6-3c7.6-15.7,15.3-31.4,22.9-47.1
	C307.5,450.5,293.7,450.6,279.9,450.6z"/>
<polygon class="st1" points="320.8,448.8 318.9,452.9 280.8,451.7 284.8,447.7 "/>
</svg>

