<?xml version="1.0" encoding="utf-8"?>
<!-- Generator: Adobe Illustrator 19.1.0, SVG Export Plug-In . SVG Version: 6.00 Build 0)  -->
<svg version="1.1" id="Camada_1" xmlns="http://www.w3.org/2000/svg" xmlns:xlink="http://www.w3.org/1999/xlink" x="0px" y="0px"
	 viewBox="0 0 595.3 841.9" style="enable-background:new 0 0 595.3 841.9;" xml:space="preserve">
<style type="text/css">
	.st0{fill:#E9001E;stroke:#FFFFFF;stroke-width:2;stroke-miterlimit:10;}
	.st1{fill:#E9001E;stroke:#E90521;stroke-width:2;stroke-miterlimit:10;}
</style>
<g>
	<path class="st0" d="M375.1,198.6c27.7,3.4,45,24.1,50.3,30.8c8.5,15.5,16.9,31.1,25.4,46.6c-4,0.4-8,0.8-11.9,1.3
		c0,2.2,0.1,4.3,0.1,6.5c6.5,0,12.9,0,19.4,0c5.3,5.3,7.4,10.4,8.3,13.8c1.6,5.9,0.1,8.1,0,21.4c-0.1,12.2,1.2,14.2-0.6,16.9
		c-1.4,2.1-6.2,7.1-25.5,2.2c-10.6-4.2-21.3-8.3-31.9-12.5c-1.7-0.4-3.5-0.8-5.2-1.1c-10.5-6.4-20.9-12.8-31.4-19.3
		c-7.1-2.7-15.9-7-25.1-13.6c-13.1-9.4-22-19.9-27.7-27.8v-7.9c4.5-4.3,9-8.7,13.4-13c0.1,7.6,0.1,15.1,0.2,22.7l6.8-0.6
		c-0.1-6.9-0.2-13.8-0.3-20.6c1.1-0.1,2.2-0.1,3.3-0.2c0-6.6,0.1-13.3,0.1-19.9h9.9c0-8.2,0.1-16.4,0.1-24.5
		C358.7,198.4,366.4,197.5,375.1,198.6z"/>
	<path class="st0" d="M425.8,231c8.1,15,16.1,30,24.2,44.9c3.6-0.3,7.2-0.6,10.8-0.9c0.1-1.3,0.3-2.6,0.4-3.8
		c2.4-0.1,4.7-0.3,7.1-0.4c5.1,16.7,10.1,33.5,15.2,50.2h3.1c0-36.6-0.1-63.8,0-74.8c0-2.1,0.1-7.4-3.1-10.8
		c-3.3-3.4-8.5-3-10.5-2.8C463.9,233.3,448.5,232.7,425.8,231z"/>
	<polygon class="st1" points="423.8,230 429,233.1 452,273.1 447.6,273.8 	"/>
</g>
</svg>
