<?xml version="1.0" encoding="utf-8"?>
<!-- Generator: Adobe Illustrator 19.1.0, SVG Export Plug-In . SVG Version: 6.00 Build 0)  -->
<svg version="1.1" id="Camada_1" xmlns="http://www.w3.org/2000/svg" xmlns:xlink="http://www.w3.org/1999/xlink" x="0px" y="0px"
	 viewBox="0 0 595.3 841.9" style="enable-background:new 0 0 595.3 841.9;" xml:space="preserve">
<style type="text/css">
	.st0{fill:#E9001E;stroke:#FFFFFF;stroke-width:2;stroke-miterlimit:10;}
</style>
<path class="st0" d="M250.6,365l-17.8-14.6l13.1-34.3l30.2-49.5l24.6,23.3l-9.3,14.7l14.5,14l6.5-9.1l35.7,36.8
	c1.1,1.8,4.4,7.7,3.6,15.6c-0.7,6.6-4,11.1-5.4,12.8c2.4-3.7,7.1-5.1,11.1-3.3c4,1.8,6.1,6.5,4.8,10.7c-1.2,4.2-2.5,8.3-3.7,12.5
	c-7-4.1-14.1-8.3-21.1-12.4l-7.2,25.5l-29.5-26.3c-6-4.4-15.8-10.5-29.1-14C263.4,365.5,256.2,365,250.6,365z"/>
</svg>
