<?xml version="1.0" encoding="utf-8"?>
<!-- Generator: Adobe Illustrator 19.1.0, SVG Export Plug-In . SVG Version: 6.00 Build 0)  -->
<svg version="1.1" id="Camada_1" xmlns="http://www.w3.org/2000/svg" xmlns:xlink="http://www.w3.org/1999/xlink" x="0px" y="0px"
	 viewBox="0 0 595.3 841.9" style="enable-background:new 0 0 595.3 841.9;" xml:space="preserve">
<style type="text/css">
	.st0{fill:#277238;stroke:#F6F7F5;stroke-width:2;stroke-miterlimit:10;}
</style>
<path class="st0" d="M147,381.8l112.7-1.3c0.3-23.4,0.7-46.8,1-70.1c-6.1-6.9-12.1-13.9-18.2-20.8c-18.6-22.1-37.1-44.2-55.7-66.3
	c-15.9,24.2-31.8,48.4-47.8,72.5l5.7,9c-2,1.6-8.2,6.8-9.1,15.1c-0.2,1.5-0.1,3,0,4.3c-1.1,0.1-13.8,1.4-17.1,10.5
	c-0.7,1.9-1.9,6.5,3.3,17.3C125,359.1,132.1,371.1,147,381.8z"/>
</svg>
