<?xml version="1.0" encoding="utf-8"?>
<!-- Generator: Adobe Illustrator 19.1.0, SVG Export Plug-In . SVG Version: 6.00 Build 0)  -->
<svg version="1.1" id="Camada_1" xmlns="http://www.w3.org/2000/svg" xmlns:xlink="http://www.w3.org/1999/xlink" x="0px" y="0px"
	 viewBox="0 0 595.3 841.9" style="enable-background:new 0 0 595.3 841.9;" xml:space="preserve">
<style type="text/css">
	.st0{fill:#575554;stroke:#FFFFFF;stroke-width:2;stroke-miterlimit:10;}
</style>
<path class="st0" d="M281.6,349.5c13.5,7.4,24.8,12.5,32.3,15.7c11.9,5,35.2,14.1,42.7,26c0.7,1.2,2.5,4,3,7.9
	c0.8,5.6-1.3,10.2-3,13.8c-6.4,13.5-9.6,20.2-11.7,23.5c-4.4,6.6-4.4,5.2-20.4,23.5c-11.8,13.5-14.3,17.1-20.7,18.7
	c-3.7,0.9-3.9-0.1-15.4,0.9c-3.5,0.3-7,0.7-16.9,2.1c-17.5,2.6-18.9,3.1-21.6,3.3c-8.4,0.6-20.8-3.3-37.9-23.9L281.6,349.5z"/>
</svg>
