<?xml version="1.0" encoding="utf-8"?>
<!-- Generator: Adobe Illustrator 19.1.0, SVG Export Plug-In . SVG Version: 6.00 Build 0)  -->
<svg version="1.1" id="Camada_1" xmlns="http://www.w3.org/2000/svg" xmlns:xlink="http://www.w3.org/1999/xlink" x="0px" y="0px"
	 viewBox="0 0 595.3 841.9" style="enable-background:new 0 0 595.3 841.9;" xml:space="preserve">
<style type="text/css">
	.st0{fill:#575554;stroke:#FFFFFF;stroke-width:2;stroke-miterlimit:10;}
</style>
<path class="st0" d="M245.4,320.9h54.8l3.7-4.8l24.2,0.9l17.7,14.9l4.2,45.9l-2.4,8c-3.3-0.1-8.8-0.8-13.5-4.3c-3-2.2-5.4-5.3-6-6.1
	c-0.8-1.1-1.7-2.5-3.5-5.3c-3.3-5.3-3-5.1-3.9-6.2c-1.6-1.9-4.6-5.6-8.7-5.4c-2.6,0.1-4.6,1.7-5.8,2.9l-8.9-0.2v-3.7h-50.2l-1-7.4
	l39.3,0.1l3-0.1v-8h-40l-3.3-1.4L245.4,320.9z"/>
</svg>
