<?xml version="1.0" encoding="utf-8"?>
<!-- Generator: Adobe Illustrator 19.1.0, SVG Export Plug-In . SVG Version: 6.00 Build 0)  -->
<svg version="1.1" id="Camada_1" xmlns="http://www.w3.org/2000/svg" xmlns:xlink="http://www.w3.org/1999/xlink" x="0px" y="0px"
	 viewBox="0 0 595.3 841.9" style="enable-background:new 0 0 595.3 841.9;" xml:space="preserve">
<style type="text/css">
	.st0{fill:#134891;}
	.st1{fill:#134891;stroke:#FFFFFF;stroke-miterlimit:10;}
</style>
<path class="st0" d="M181,113.2l-43.3-22.8l-28.1-33.3l11.5-14.5v21.5l9.3,2l-0.7-23.4l2-0.2l1.5-20h8.3V-2.4L54.8-2.2
	C64.2,10,70.3,21.1,74.3,29.2c9.6,19.5,14.6,38.4,19.6,57c1.4,5.1,2.4,9.4,3.1,12.2c26,31,52,61.9,78.1,92.9c3.1-1.2,5.4-0.9,7-0.4
	c7.8,2.6,12.5,17.2,10.8,36.3c-0.2,18.1-0.3,36.2-0.5,54.3c2.2,1.4,5.2,3.7,7.6,7.5c6.7,10.1,4.2,21.9,3.7,24.1
	c-17.2,29.4-34.4,58.7-51.6,88.1c-1,1.6-2.1,3.2-3.1,4.8c-5.4,8.7-10.8,17.4-16.1,26.1l-25-15.2l22.7-35.8l-7.5-7.7l-45.8,52.4
	l-20,44.3l12.6,3l20.5-38.3l40.8,19.9l-28.1,65l11,6.1l29-60.6l18.7,11.6l-4.7,16.1l14.4,9.8l9.7-16.7c4.4,2.7,15.9,8.9,31.2,7.5
	c11.7-1.1,20.3-6.1,24.5-9c2.5,5.2,7.5,8.5,12.9,8.4c5.6-0.1,10.6-3.6,13-9.1l1.3,3l6.6,26.6l6.8,2.4l0.6,7.8
	c1.1,0.2,7.6,1.5,11.7,8.2c4.2,6.8,2.7,13.9,2.4,15l10.1,2.1l1.3-11.2c17.5-2.2,29.2,1.8,36.5,5.6c11.4,5.9,21.4,16.4,40.2,36.2
	c6,6.3,7.3,8,10.9,10.6c10.4,7.4,19.9,8.1,37,9.6c39.3,3.5,47.3,5.2,56.2,11.3c4.7,3.2,10.4,7.1,13.7,14.1
	c8.1,17-1.7,43.7-24.5,67.6c-15.1,10.2-30.2,20.4-45.4,30.6c-11.6,3-31.4,9.7-51.2,26.4c-14.7,12.4-24.2,25.9-29.9,35.6L336.8,818
	l-2.3,26.3h11.9l13.1-50.5c4.9-9.2,14.5-24.6,31.4-37.9c18.8-14.8,37.3-19.7,47.2-21.5c10.9-5,27.5-14.5,43.4-32
	c11.2-12.3,18.5-24.7,23.2-34.2c5.6-12.5,8-23.5,9.1-31.1c1.5-10.4,2.5-17.5-0.7-24.8c-2.9-6.6-8.1-11.5-18.7-16.6
	c-9.7-4.6-28.1-11.6-55.6-11.7C413,580,396,570.4,385,562.3c-17.3-13-24.2-26.1-44.4-35.3c-13.7-6.3-26.4-7.5-35-7.6l-17.8-14.6
	l13.1-34.3l30.2-49.5l24.6,23.3l-9.3,14.7l14.5,14l6.5-9.1l35.7,36.8l3.6,15.6l-5.4,12.8l11.1-3.3l6.6,11.3
	c-2.2,3.8-4.4,7.6-6.7,11.4c2.2,0.4,4.4,0.9,6.6,1.3c22.4-0.5,44.7-1.1,67.1-1.6c2.8,0.1,5.7,0.2,8.5,0.3c0.8,3.1,2.4,7.7,6,12
	c8.8,10.6,21.8,10.1,23.9,10l65.2,20.8v-8.6c-22.3-7.4-44.6-14.8-66.8-22.2c-0.1,2.3-0.1,4.6-0.2,6.8c-1.1,0-12.6,0-19.5-10.4
	c-5.6-8.4-4.2-17.5-3.9-19.2c-2.2,0.2-4.4,0.3-6.5,0.5l-11.3,4.8h-59.2l0.3-10.6c2-1.8,4-3.7,6.1-5.5c-2.7-0.3-5.5-0.6-8.2-0.9
	c0.1-7.8,0.1-15.7,0.2-23.5h54.8l3.7-4.8l24.2,0.9l19.6,14.7l3.3,10l25,2.4l1.4-4.2l-20.5-2l-5.7-12.3l26.9-1v-8.7h-30.4l-4.7,8.7
	l-11.4-8.7l0.2-9.3l-16.5,0.6l0.6,3.1h-81.2l-32.3-35.7l2.7-16.3l11.4,1.4l41.9,29.7l9.4-3l-46.8-42.4l2.5-8.3l79.8-0.6l-4-9.1
	l-81-0.3l-88-169.2l27-4.9l40.5-9.3l-2.9-9.3l-66.1,7l-23.8-76.8l4.5-122.4l-17.9-0.7l-45.9-3.6L194,6.5l-7.4-4.3v-4.3L165-2.4
	L177.5,9l37.6,20l51.3,3.2l5.8,10.4l2.4,75.3l-17.4-49.4l-7.6,0l-1.2,4l-20.5,2.3V85l20.5-0.7l6.8,11.4l-1.2,38.8l-21.5,2.6
	l-4.8-6.1l-32.6-7.9L181,113.2z"/>
<path class="st1" d="M524.2,569.8c0.4,17.2,0.8,34.5,1.2,51.7h1.5v3.9h-8.5v2.9h12.7v-2.9l-2.9-0.3l-0.2-3.5h0.8v-7.4l3.7,0.3v-7.2
	v-7.7h20.9v15.7h4.7l-0.5-15.7h-1.7v-2.2h3.7v18h4.7v-17.7v-14.2C550.9,578.9,537.6,574.3,524.2,569.8z"/>
</svg>
