<?xml version="1.0" encoding="utf-8"?>
<!-- Generator: Adobe Illustrator 19.1.0, SVG Export Plug-In . SVG Version: 6.00 Build 0)  -->
<svg version="1.1" id="Camada_1" xmlns="http://www.w3.org/2000/svg" xmlns:xlink="http://www.w3.org/1999/xlink" x="0px" y="0px"
	 viewBox="0 0 595.3 841.9" style="enable-background:new 0 0 595.3 841.9;" xml:space="preserve">
<style type="text/css">
	.st0{fill:#F47C29;stroke:#FFFFFF;stroke-width:2;stroke-miterlimit:10;}
</style>
<path class="st0" d="M373.9,443.4h10.3l-1.3-52.9l-5.8-0.8c-1.8-0.1-4.3-0.4-7.2-1.5c-3.4-1.2-5.7-2.9-7.1-3.9
	c-1.8-1.3-4.5-3.2-6.7-6.5c-2.7-4-3.6-8.1-3.9-10.8l-74.5,1.4l-6.6-1.3l-20.1-11.9l-6.9,24.5c5.4,3.5,11.3,7,17.7,10.4
	c5.4,2.9,10.7,5.5,15.8,7.8c3.6,1.1,9.1,2.6,15.9,4c18.3,3.6,22.4,1.3,37.7,4.6c12.8,2.8,20,6.7,28.1,11c5.9,3.2,9.4,5.7,11.9,9.9
	C374.7,433.6,374.3,440.2,373.9,443.4z"/>
</svg>
